{"title":"Little Fockers 2010 TS Lu","uid":6067196,"size":733502561,"categoryP":"video","categoryS":"movies","magnet":"?xt=urn:btih:5ded40081c07fdc8f6c4b5947ae0b5037e7cc131&amp;dn=Little+Fockers+2010+TS+Lu&amp;tr=udp%3A%2F%2Ftracker.openbittorrent.com%3A80&amp;tr=udp%3A%2F%2Fopen.demonii.com%3A1337&amp;tr=udp%3A%2F%2Ftracker.coppersurfer.tk%3A6969&amp;tr=udp%3A%2F%2Fexodus.desync.com%3A6969","seeders":1,"leechers":0,"uploader":"DibyaTPB","files":50,"time":1293436879,"description":"\nComplete name                    :Little.Fockers.2010.TS.Lu.\n\nFormat                           : AVI\n\nFormat/Info                      : Audio Video Interleave\n\nFile size                        : 699 MiB\n\nDuration                         : 1h 33mn\n\nOverall bit rate                 : 1 047 Kbps\n\nWriting application              : VirtualDubMod 1.5.10.2 (build 2542/release)\n\nWriting library                  : VirtualDub build 32706/release\n\n\n\nVideo\n\nID                               : 0\n\nFormat                           : MPEG-4 Visual\n\nFormat profile                   : Advanced Simple@L5\n\nFormat settings, BVOP            : Yes\n\nFormat settings, QPel            : No\n\nFormat settings, GMC             : No warppoints\n\nFormat settings, Matrix          : Default (H.263)\n\nMuxing mode                      : Packed bitstream\n\nCodec ID                         : XVID\n\nCodec ID/Hint                    : XviD\n\nDuration                         : 1h 33mn\n\nBit rate                         : 909 Kbps\n\nWidth                            : 640 pixels\n\nHeight                           : 354 pixels\n\nDisplay aspect ratio             : 16:9\n\nFrame rate                       : 25.000 fps\n\nColor space                      : YUV\n\nChroma subsampling               : 4:2:0\n\nBit depth                        : 8 bits\n\nScan type                        : Progressive\n\nCompression mode                 : Lossy\n\nBits/(Pixel*Frame)               : 0.160\n\nStream size                      : 607 MiB (87%)\n\nWriting library                  : XviD 1.2.1 (UTC 2008-12-04)\n\n\n\nAudio\n\nID                               : 1\n\nFormat                           : MPEG Audio\n\nFormat version                   : Version 1\n\nFormat profile                   : Layer 3\n\nMode                             : Joint stereo\n\nMode extension                   : MS Stereo\n\nCodec ID                         : 55\n\nCodec ID/Hint                    : MP3\n\nDuration                         : 1h 33mn\n\nBit rate mode                    : Constant\n\nBit rate                         : 128 Kbps\n\nChannel(s)                       : 2 channels\n\nSampling rate                    : 48.0 KHz\n\nCompression mode                 : Lossy\n\nStream size                      : 85.5 MiB (12%)\n\nAlignment                        : Split accross interleaves\n\nInterleave, duration             : 40 ms (1.00 video frame)\n\nInterleave, preload duration     : 500 ms\n\n\n\nVideo:Serenity Thanks\n\n\n\nAudio: own\n\n\n\nenjoy all\n\n &lt;a href=&quot;\nhttp://img214.imageshack.us/img214/5743/tanklittlefockers2010ts.jpg&quot; rel=&quot;nofollow&quot; target=&quot;_NEW&quot;&gt;\nhttp://img214.imageshack.us/img214/5743/tanklittlefockers2010ts.jpg&lt;/a&gt;","torrent":{"xt":"urn:btih:5ded40081c07fdc8f6c4b5947ae0b5037e7cc131","amp;dn":"Little+Fockers+2010+TS+Lu","amp;tr":["udp%3A%2F%2Ftracker.openbittorrent.com%3A80","udp%3A%2F%2Fopen.demonii.com%3A1337","udp%3A%2F%2Ftracker.coppersurfer.tk%3A6969","udp%3A%2F%2Fexodus.desync.com%3A6969"],"infoHash":"5ded40081c07fdc8f6c4b5947ae0b5037e7cc131","infoHashBuffer":{"type":"Buffer","data":[93,237,64,8,28,7,253,200,246,196,181,148,122,224,181,3,126,124,193,49]},"announce":[],"urlList":[]}}